<?xml version="1.0" standalone="no"?>
<!DOCTYPE svg PUBLIC "-//W3C//DTD SVG 20010904//EN"
 "http://www.w3.org/TR/2001/REC-SVG-20010904/DTD/svg10.dtd">
<svg version="1.0" xmlns="http://www.w3.org/2000/svg"
 width="512.000000pt" height="512.000000pt" viewBox="0 0 512.000000 512.000000"
 preserveAspectRatio="xMidYMid meet">

<g transform="translate(0.000000,512.000000) scale(0.100000,-0.100000)"
fill="#000000" stroke="none">
<path d="M223 5102 c-95 -34 -145 -78 -194 -172 -18 -36 -23 -62 -23 -125 -2
-153 -82 -61 1030 -1175 1079 -1082 1017 -1012 999 -1108 -6 -33 -117 -148
-999 -1032 -1108 -1110 -1031 -1022 -1031 -1170 1 -181 134 -314 315 -315 148
0 60 -77 1170 1031 884 882 999 993 1033 999 95 18 25 80 1107 -999 1110
-1108 1022 -1031 1170 -1031 181 1 314 134 315 315 0 148 77 60 -1031 1170
-1079 1082 -1017 1012 -999 1108 6 33 117 148 999 1032 1108 1110 1031 1022
1031 1170 -1 181 -134 314 -315 315 -148 0 -60 77 -1170 -1031 -1082 -1079
-1012 -1017 -1107 -999 -34 6 -148 116 -1028 995 -830 829 -998 993 -1040
1011 -69 30 -165 35 -232 11z"/>
</g>
</svg>
