<?xml version="1.0" encoding="UTF-8" standalone="no"?>
<!-- Created with Inkscape (http://www.inkscape.org/) -->

<svg
   version="1.1"
   id="svg438"
   width="500"
   height="131"
   viewBox="0 0 500 130.99999"
   xmlns="http://www.w3.org/2000/svg"
   xmlns:svg="http://www.w3.org/2000/svg">
  <defs
     id="defs442" />
  <path
     d="m 0,52.727763 c 0,32.132484 25.17064,52.338447 51.585772,52.338447 13.297288,0 27.038208,-5.584429 36.84959,-16.113596 6.455076,9.663506 17.412918,16.032186 29.822948,16.032186 17.34479,0 32.16738,-12.757295 35.55359,-29.173289 4.40973,-2.344431 8.08837,-5.222214 11.77532,-9.32123 V 128.8046 c 0,1.14977 0.83243,1.98387 1.98221,1.98387 h 17.68707 c 1.15145,0 1.98555,-0.8341 1.98555,-1.98387 V 52.978655 c 2.60861,-1.146461 4.96468,-1.626645 7.15791,-1.626645 12.09267,0 17.67377,9.738274 17.67377,18.944856 0,10.195197 -5.28037,16.60375 -14.78437,16.047134 -0.92048,-0.05483 -1.69144,0.420369 -1.96394,1.289354 l -4.51937,14.427136 c -0.38216,1.21957 0.30239,2.36104 1.58178,2.62689 9.72664,2.01545 15.83446,2.83957 22.32443,2.83957 14.02338,0 25.49297,-4.26683 35.64995,-14.488613 5.99816,7.382213 14.80597,11.944793 24.9131,11.944793 7.20775,0 13.77914,-2.87778 19.02129,-8.07341 4.04419,5.49471 9.32123,8.14486 16.39439,8.14486 6.99342,0 13.58142,-3.564 20.06806,-9.773166 7.20775,6.905356 15.5736,10.284916 25.31354,10.284916 10.71027,0 23.10369,-4.14387 30.02066,-14.161285 1.517,-2.196552 3.21841,-4.672245 3.21841,-4.672245 0,0 0.67126,1.575138 1.75292,2.9592 8.41902,10.80165 19.12597,15.29279 29.45076,15.29279 16.91445,0 32.25377,-12.056114 35.42897,-29.469033 0.0299,-0.164492 5.68246,-2.49563 11.12067,-8.159813 v 4.432983 c 0,19.047872 11.90992,33.210823 27.62142,33.210823 h 3.33138 c 1.14979,0 1.98222,-0.83409 1.98222,-1.98221 V 88.151754 c 0,-1.151446 -0.83243,-1.98554 -1.98222,-1.98554 h -1.25945 c -4.96301,0 -8.03851,-3.971074 -8.03851,-9.839628 V 2.197068 c 0,-1.1514459 -0.8341,-1.985538 -1.98388,-1.985538 h -17.68541 c -1.15145,0 -1.98555,0.8340921 -1.98555,1.985538 v 41.001774 c 0,4.717106 -5.93334,12.074397 -11.87666,16.153472 0.19771,-0.134584 -0.12462,-0.458584 -0.19109,-0.684553 -4.36153,-15.031934 -18.16892,-26.037962 -34.48189,-26.037962 -19.75901,0 -35.83772,16.145165 -35.91913,36.027129 -5.88849,12.079381 -16.52565,17.539195 -26.12103,17.539195 -7.84579,0 -15.82616,-5.355137 -15.82616,-16.926087 0,-11.167197 7.44369,-17.680427 15.49883,-17.680427 3.80492,0 8.01027,1.207939 12.26215,3.773353 0.9587,0.578215 2.05699,0.387139 2.68836,-0.523385 l 8.34592,-12.042828 c 0.6347,-0.913845 0.46688,-2.050337 -0.44198,-2.693352 -6.36535,-4.514399 -14.55507,-7.473598 -23.37285,-7.473598 -20.80245,0 -37.47766,15.822826 -37.47766,35.917467 0,5.037784 0.7909,9.580429 2.20819,13.609658 -3.02068,2.92763 -6.10947,4.481169 -8.45557,4.481169 -2.38099,0 -3.99766,-1.600061 -3.99766,-4.992923 V 41.317981 c 0,-1.212922 -0.67458,-2.23643 -1.81107,-2.719938 -10.04733,-4.283445 -17.13212,-5.968244 -25.46972,-5.968244 -23.86634,0 -40.53489,14.661411 -40.53489,36.047067 0,3.356307 0.38549,6.587998 1.1149,9.64689 l -0.0897,-0.137908 c -3.65207,5.728984 -10.24006,9.28966 -15.73643,10.632182 3.88302,-6.227444 6.02307,-13.790765 6.02307,-21.437163 -0.0914,-20.878887 -16.14848,-34.751068 -39.0478,-34.751068 -9.00719,0 -16.62037,1.709722 -27.01329,6.30886 -1.10492,0.488492 -1.75458,1.497046 -1.75458,2.688368 v 0.468554 c 0,3.38123 -4.05581,11.738767 -12.76393,16.861288 -4.2685,-15.176488 -18.14733,-26.32707 -34.56498,-26.32707 -19.807197,0 -35.919131,16.228241 -35.919131,36.176667 0,0.108005 0.0016,0.216 0.0016,0.322339 -5.572799,10.39292 -16.369472,16.073719 -26.656055,16.073719 -15.733103,0 -30.91956,-12.532983 -30.91956,-32.474761 0,-18.625842 14.874088,-32.129162 31.594146,-32.129162 7.815874,0 14.388919,2.367692 19.87864,6.297229 0.98363,0.702831 2.179938,0.535016 2.869477,-0.458583 l 8.495444,-12.26049 c 0.621415,-0.892246 0.46523,-2.000492 -0.405415,-2.651815 C 78.20361,4.8056827 65.727122,0.57374529 53.654386,0.31122228 24.379748,-0.32182371 0,21.580571 0,52.727763 m 105.1604,16.078703 c 0,-9.386028 6.01145,-17.374702 13.09791,-17.374702 5.46978,0 10.29988,4.763628 12.21895,11.253596 -0.48351,-0.06813 -0.99028,-0.142893 -1.52529,-0.225969 -0.81249,-0.124615 -1.5469,0.232615 -1.91742,0.947077 l -6.12941,11.800243 c -0.65299,1.261107 -0.0598,2.626892 1.33089,3.020675 2.25803,0.641353 4.24689,1.136493 6.10615,1.502031 -2.42584,3.906277 -6.08289,6.453415 -10.08387,6.453415 -7.08646,0 -13.09791,-7.988676 -13.09791,-17.376366 m 158.88624,0.769291 c 0,-8.920797 5.30363,-18.109102 16.45089,-18.129041 3.22172,-0.0066 6.34541,0.4536 9.31291,1.385723 0.11801,2.233107 0.17779,4.366522 0.17779,6.395259 0,17.226828 -4.23193,26.955133 -12.21396,26.955133 -8.9989,0 -13.72763,-8.184737 -13.72763,-16.607074 m 143.37079,-0.769291 c 0,-9.386028 6.01145,-17.374702 13.09791,-17.374702 5.47144,0 10.31317,4.778582 12.22559,11.288488 -0.63803,-0.09969 -1.31427,-0.214338 -2.03372,-0.340614 -0.83243,-0.149539 -1.59009,0.211014 -1.97058,0.945414 l -6.14105,11.833473 c -0.63637,1.224554 -0.0797,2.555447 1.26111,2.975815 2.43083,0.760986 4.58917,1.359138 6.60794,1.806091 -2.42585,3.788307 -6.02308,6.2424 -9.94929,6.2424 -7.08646,0 -13.09791,-7.988676 -13.09791,-17.376366"
     style="fill:#f04e23;fill-opacity:1;fill-rule:nonzero;stroke:none;stroke-width:1.66153"
     id="path698" />
</svg>
