<?xml version="1.0" encoding="UTF-8"?>
<svg id="b" data-name="Camada 2" xmlns="http://www.w3.org/2000/svg" width="746.899" height="335.685" viewBox="0 0 74.69 33.568">
  <g id="c" data-name="Camada 1">
    <g>
      <path d="M69.756,11.501c1.08.025,1.978-.898,2.006-2.061.028-1.162-.825-2.126-1.905-2.152s-1.981.898-2.006,2.061c-.028,1.162.825,2.126,1.908,2.152" fill="#e52629"/>
      <path d="M56.566,21.229c1.169,1.856,4.142,2.318,6.549,1.517-.107,11.788-8.675,11.493-6.549-1.517ZM63.112,20.949c-2.894.782-5.475-.543-5.488-2.547-.019-2.956,4.859-5.246,5.488,2.547ZM49.575,19.049c-2.505,0-1.826-2.359-1.014-2.359,1.273,0,1.014,2.359,1.014,2.359ZM44.131,3.18c1.191-.283,1.842,10.41-2.524,20.659-1.172-5.701-.089-20.034,2.524-20.659ZM74.618,30.803s-.218-.503-.379-.848c-.518.663-4.524,4.683-4.006-4.784.161-2.946.613-10.444.61-10.444.028-.402-.629-.462-.629-.465-.935-.122-2.234-.126-2.527,1.432-.585,3.103-2.951,4.542-2.951,4.542-.006,0-.009.006-.013.009-1.169-9.508-8.483-6.722-10.309-2.331-1.627,1.247-3.267,1.222-3.343,1.219-.139-3.402-2.398-3.901-3.324-3.471-2.717,1.253-1.886,5.538,1.785,5.538-.12,10.058-5.706,14.1-7.33,5.224.025-.276,7.033-14.405,3.965-24.309-2.028-6.546-11.417,2.079-6.596,26.143-2.366,3.785-5.355,4.63-5.371-.77-.009-2.752.717-12.592.717-12.592.041-.565-.493-.606-.752-.638-.783-.101-2.29-.138-2.483,1.668,0,.013-.42,7.162-.442,8.368-.016.823-.174,2.274-.142,3.785-1.339,3.666-4.717,5.242-4.123-.069.31-2.78,2.038-8.742,2.126-9.049.673-2.378-1.69-3.053-2.031-3.172-.341-.119-2.461-.779-4.022-1.222.104-.644.193-1.25.218-1.586.009-.154-.022-.449-.423-.499-.578-.078-1.763-.1-2,.879-.316,1.608-.828,5.535-1.497,7.005-.117.245.016.355.016.355l.215.242c.385.437.929.433,1.362.031.635-.587,1.147-2.268,1.564-4.247,1.257.298,3.074.754,3.826,1.134-.022.129-1.185,4.438-1.595,6.427-.408,1.988-2.186,8.924,1.466,9.185,2.673.192,4.259-1.668,5.102-3.317,1.479,6.285,7.576,2.384,8.909-.192,1.283,5.085,10.255,6.738,10.95-8.798.37-.035,1.358-.226,2.303-.619-1.358,5.387-.136,12.64,4.474,12.988,4.767.358,7.235-6.226,6.941-11.631.319-.192,1.602-1.14,2.562-2.642l-.332,7.294c-.212,5.999,3.143,9.429,7.462,4.931.237-.248.047-.7.047-.7" fill="#e52629"/>
      <path d="M14.558,12.387c.695-7.281,2.673-7.463,2.673-7.463.047,0,7.162.459,9.171-4.099.092-.21.145-.54-.445-.66C21.413,3.721,13.465.017,5.781.985,2.543,1.255,0,3.937,0,7.21c0,6.895,9.178,7.064,9.178,4.919l-.063-.98c-.142.063-.319.141-.341.151-2.635,1.074-5.465-.179-5.465-3.292,0-4.435,5.737-3.392,11.62-3.138-2.155,1.844-3.804,4.134-4.06,9.731-.815.496-2.36,1.492-3.131,2.073-.148.113-.095.276-.095.276,0,0,.272,1.156.411,1.746.439-.28,2.022-1.3,2.635-1.784-.727,7.196-.774,14.983-4.189,14.983-1.753,0-3.854-4.112-.708-9.64,0,0,.215-.418.082-.889-.133-.471-.55-2.039-.55-2.039C-.433,24.603.13,33.564,6.802,33.564c7.8,0,7.276-15.558,7.62-19.208.43-.188.881-.292,1.134-.311.028,1.15.979,2.073,2.148,2.073s2.136-.933,2.151-2.126c.041-3.257-4.391-1.913-5.295-1.602" fill="#e52629"/>
      <path d="M33.715,11.501c1.08.025,1.978-.898,2.006-2.061.028-1.162-.825-2.126-1.905-2.152-1.08-.025-1.981.898-2.006,2.061-.028,1.162.825,2.126,1.908,2.152" fill="#e52629"/>
    </g>
  </g>
</svg>